<?xml version="1.0" encoding="utf-8"?>
<!-- Generator: Adobe Illustrator 27.5.0, SVG Export Plug-In . SVG Version: 6.00 Build 0)  -->
<svg version="1.1" id="Layer_1" xmlns="http://www.w3.org/2000/svg" xmlns:xlink="http://www.w3.org/1999/xlink" x="0px" y="0px"
	 viewBox="0 0 235.947 172.584" style="enable-background:new 0 0 235.947 172.584;" xml:space="preserve">
<g>
	<g>
		<g>
			<path style="fill:#CF0014;" d="M27.059,84.42c0,0-7.172-29.668,33.257-55.971C75.66,16.515,82.479,3.364,104.642,2.877
				c22.163-0.487,40.429,12.421,47.979,26.547c7.55,14.126,20.702,35.802,28.739,63.567c7.063,19.24,14.369,26.06,14.369,26.06
				l-5.845,4.14c0,0-18.51-7.063-27.521-23.624c-9.011-16.561-21.676-25.086-21.676-25.086s6.886,9.269-1.556,11.063
				C139.132,85.543,84.463,64.464,27.059,84.42z"/>
			<path style="fill:#780015;" d="M189.884,123.465c-0.033,0-0.066-0.006-0.098-0.018c-0.187-0.071-18.708-7.289-27.664-23.75
				c-7.258-13.339-17.003-21.52-20.379-24.102c1.019,1.719,2.494,4.832,1.578,7.258c-0.566,1.5-1.957,2.496-4.134,2.958
				c-0.049,0.01-0.106,0.007-0.156-0.012c-0.546-0.21-55.235-20.813-111.884-1.12c-0.073,0.024-0.154,0.018-0.222-0.019
				c-0.068-0.037-0.117-0.101-0.135-0.176c-0.018-0.075-1.773-7.613,1.472-18.266c2.989-9.81,10.949-24.366,31.903-37.999
				c3.859-3.003,7.17-6.077,10.371-9.051c9.362-8.693,17.447-16.201,34.098-16.567c0.408-0.009,0.813-0.013,1.217-0.013
				c22.483,0,40.076,13.727,47.012,26.706c1.105,2.067,2.33,4.297,3.642,6.684c7.701,14.014,18.249,33.207,25.118,56.936
				c6.946,18.921,14.22,25.867,14.294,25.935c0.06,0.056,0.092,0.137,0.086,0.219c-0.005,0.082-0.047,0.158-0.115,0.205l-5.846,4.14
				C189.996,123.448,189.94,123.465,189.884,123.465z M140.687,74.205c0.054,0,0.106,0.016,0.153,0.047
				c0.128,0.086,12.824,8.752,21.765,25.182c8.454,15.538,25.545,22.76,27.242,23.446l5.46-3.867
				c-1.316-1.367-7.905-8.769-14.203-25.929c-6.859-23.688-17.39-42.851-25.079-56.842c-1.313-2.389-2.539-4.62-3.645-6.69
				c-6.983-13.067-24.908-26.907-47.731-26.401c-16.443,0.362-24.457,7.803-33.736,16.42c-3.211,2.981-6.53,6.064-10.427,9.094
				c-11.508,7.488-26.33,20.096-31.696,37.712c-2.841,9.328-1.807,16.199-1.524,17.679c55.751-19.248,109.512,0.312,111.888,1.2
				c1.935-0.427,3.165-1.301,3.655-2.598c1.204-3.184-2.306-7.968-2.342-8.016c-0.079-0.107-0.07-0.256,0.023-0.354
				C140.542,74.234,140.614,74.205,140.687,74.205z"/>
		</g>
		<g>
			<path style="fill:#FB7364;" d="M41.307,48.941c-0.776,2.281-1.551,4.562-2.327,6.843c12.278-17.722,28.554-32.656,47.264-43.368
				c-0.382,0.908-0.765,1.817-1.148,2.726c3.638-2.488,7.277-4.977,10.915-7.465c-0.19,0.91-0.38,1.82-0.57,2.73
				c12.55-3.598,26.074-3.375,38.613,0.23c-8.27-4.912-18.356-8.003-29.412-7.76C82.479,3.364,75.66,16.515,60.316,28.449
				C32.846,46.322,27.354,65.743,26.654,76.36c0.967-2.697,2.184-5.324,3.622-7.873C33.953,61.972,37.63,55.457,41.307,48.941z"/>
		</g>
		<g>
			<path style="fill:#A50017;" d="M186.501,105.008c-0.148,1.219-0.297,2.439-0.445,3.658c-4.35-1.694-7.13-5.88-9.626-9.825
				c-4.453-7.037-8.906-14.075-13.359-21.112c-10.202-16.124-20.793-33.665-19.658-52.712c-0.523,2.785-1.741,6.223-4.57,6.388
				c-3.043,0.178-4.579-3.599-4.914-6.629c-0.335-3.03-0.904-6.791-3.808-7.717c3.167,7.989,0.433,17.92-6.377,23.163
				c-12.574,9.682-33.012,2.403-45.056,12.736c12.543-1.539,25.473,0.186,37.174,4.96c5.525,2.254,11.284,5.793,12.785,11.568
				c-12.233-1.771-24.466-3.543-36.699-5.314c1.305-0.639,2.609-1.279,3.914-1.918c-6.417-2.644-13.77-1.564-20.381,0.549
				c-6.611,2.113-12.924,5.213-19.72,6.619c-6.796,1.406-14.485,0.842-19.762-3.666c-2.177-1.86-3.672-4.526-4.325-7.333
				C24.349,73.19,27.059,84.42,27.059,84.42c57.404-19.956,112.073,1.123,112.073,1.123c8.442-1.794,1.556-11.063,1.556-11.063
				s12.665,8.524,21.676,25.086c9.011,16.561,27.521,23.624,27.521,23.624l5.845-4.14
				C195.73,119.05,191.574,115.168,186.501,105.008z"/>
		</g>
		<g>
			<path style="fill:#A50017;" d="M186.419,113.016c-4.466-0.53-7.916-4.064-10.787-7.525c-2.713-3.271-5.267-6.671-7.747-10.121
				c-12.25-17.041-22.715-35.365-31.171-54.573c2.319,4.72,0.568,11.046-3.849,13.901c-3.77,2.437-9.043,2.056-12.593-0.627
				c3.996,3.779,7.993,7.559,11.989,11.338c1.863,1.762,3.887,3.959,3.503,6.493c-0.346,2.289-2.657,3.857-4.951,4.168
				c-2.294,0.31-4.646-0.161-6.84-0.899c-12.501-4.201-27.984-2.351-41.666,0.683c32.856,0.453,56.824,9.689,56.824,9.689
				c8.442-1.794,1.556-11.063,1.556-11.063s12.665,8.524,21.676,25.086c9.011,16.561,27.521,23.624,27.521,23.624l5.845-4.14
				c0,0-2.025-1.898-4.97-6.488C189.358,113.007,187.892,113.19,186.419,113.016z"/>
		</g>
	</g>
	<g>
		<g>
			<path style="fill:#F7FCF6;" d="M215.467,118.799c2.919,0.949,5.385,2.989,7.325,5.368c1.94,2.378,3.406,5.1,4.859,7.803
				c-1.206-1.256-2.661-2.27-4.256-2.967c5.487,5.161,9.404,12.528,8.648,20.022c-0.387-3.363-1.816-6.504-3.227-9.581
				c1.963,5.444,1.685,11.55-0.818,16.768c-0.416-1.922-1.252-3.751-2.432-5.324c0.136,3.497,0.226,7.201-1.491,10.251
				c-1.004,1.783-2.589,3.262-3.177,5.222c-2.522-0.753-4.863-2.107-6.774-3.917c0.644,2.263,1.712,3.837,3.659,5.158
				c-5.315,0.164-10.798,0.301-15.757-1.621c1.695,1.542,3.639,2.811,5.733,3.74c-3.654-0.33-7.291-1.222-10.526-2.952
				c-3.235-1.73-6.055-4.333-7.729-7.598c-0.137,2.4,0.37,4.834,1.454,6.98c-3.858-3.129-7.231-6.979-9.191-11.543
				c-1.96-4.564-2.402-9.893-0.575-14.512c-2.425,2.762-3.825,6.403-3.877,10.078c-0.891-1.406-1.255-3.083-1.414-4.74
				c-0.698-7.282,2.55-14.824,8.32-19.321c-2.091,0.248-4.071,1.327-5.414,2.948c0.809-2.04,2.566-3.561,4.435-4.711
				c1.87-1.15,3.908-2.013,5.737-3.227c4.363-2.896,8.123-6.821,12.816-9.145c-0.627,1.032-1.254,2.064-1.88,3.096
				c4.145-1.612,8.824-1.813,13.091-0.562c4.268,1.25,8.098,3.944,10.718,7.538c-1.927-1.188-3.854-2.375-5.781-3.563
				c-0.546-0.337-1.125-0.684-1.766-0.703C215.536,117.765,215.491,118.158,215.467,118.799z"/>
			<path style="fill:#FFFFFF;" d="M207.759,169.995c-0.009,0-0.016-0.001-0.025-0.001c-4.033-0.364-7.61-1.368-10.632-2.984
				c-3.119-1.668-5.692-4.064-7.344-6.818c0.036,2.024,0.529,4.022,1.444,5.833c0.058,0.116,0.028,0.256-0.073,0.338
				c-0.101,0.08-0.245,0.081-0.346-0.001c-4.347-3.526-7.466-7.446-9.269-11.648c-1.88-4.377-2.257-9.097-1.094-13.197
				c-1.77,2.514-2.788,5.592-2.832,8.659c-0.002,0.122-0.083,0.228-0.199,0.261c-0.124,0.031-0.241-0.016-0.307-0.117
				c-0.795-1.255-1.257-2.799-1.455-4.861c-0.67-6.991,2.292-14.282,7.595-18.881c-1.633,0.42-3.126,1.356-4.205,2.657
				c-0.087,0.104-0.238,0.13-0.351,0.061c-0.117-0.069-0.165-0.212-0.116-0.337c0.723-1.822,2.211-3.406,4.548-4.843
				c0.847-0.521,1.738-0.989,2.601-1.441c1.048-0.55,2.132-1.119,3.127-1.78c1.699-1.127,3.338-2.437,4.921-3.703
				c2.479-1.982,5.043-4.032,7.925-5.459c0.111-0.054,0.241-0.03,0.325,0.061c0.083,0.09,0.096,0.224,0.032,0.328l-1.474,2.426
				c4.024-1.385,8.44-1.497,12.528-0.298c4.34,1.271,8.198,3.985,10.862,7.639c0.077,0.106,0.069,0.252-0.02,0.349
				c-0.09,0.097-0.236,0.116-0.346,0.047l-5.78-3.562c-0.49-0.302-1.045-0.644-1.631-0.662c-0.32-0.002-0.385,0.035-0.417,0.545
				c2.602,0.896,5.106,2.755,7.252,5.388c1.961,2.404,3.449,5.171,4.888,7.846c0.066,0.121,0.031,0.271-0.079,0.353
				c-0.113,0.08-0.265,0.068-0.361-0.032c-0.762-0.794-1.636-1.495-2.58-2.075c5.323,5.603,8.088,12.581,7.444,18.968
				c-0.014,0.14-0.131,0.246-0.271,0.247c-0.001,0-0.001,0-0.002,0c-0.139,0-0.257-0.105-0.272-0.243
				c-0.249-2.161-0.932-4.227-1.758-6.231c0.84,4.56,0.237,9.327-1.767,13.505c-0.05,0.106-0.162,0.167-0.28,0.154
				c-0.117-0.014-0.211-0.1-0.236-0.215c-0.341-1.576-0.977-3.101-1.855-4.458c0.102,3.019,0.073,6.557-1.561,9.461
				c-0.383,0.68-0.85,1.319-1.302,1.938c-0.769,1.052-1.496,2.045-1.851,3.229c-0.043,0.145-0.195,0.228-0.341,0.185
				c-2.234-0.667-4.329-1.799-6.116-3.296c0.659,1.738,1.662,2.981,3.234,4.046c0.099,0.067,0.143,0.19,0.109,0.304
				c-0.033,0.114-0.136,0.194-0.255,0.198c-4.594,0.143-9.747,0.302-14.47-1.156c1.395,1.104,2.919,2.026,4.551,2.749
				c0.122,0.055,0.188,0.19,0.154,0.32C207.993,169.912,207.883,169.995,207.759,169.995z M189.504,158.895
				c0.102,0,0.196,0.056,0.245,0.149c1.555,3.03,4.258,5.687,7.614,7.482c2.558,1.368,5.528,2.288,8.845,2.742
				c-1.576-0.843-3.04-1.876-4.367-3.084c-0.098-0.089-0.119-0.236-0.049-0.348c0.07-0.113,0.208-0.161,0.333-0.111
				c4.723,1.83,10.057,1.77,14.85,1.626c-1.565-1.235-2.515-2.721-3.116-4.833c-0.034-0.119,0.016-0.246,0.121-0.31
				c0.106-0.064,0.241-0.049,0.332,0.035c1.815,1.719,4.026,3.02,6.408,3.774c0.407-1.16,1.138-2.162,1.849-3.132
				c0.442-0.605,0.9-1.231,1.267-1.882c1.73-3.074,1.578-6.973,1.456-10.105c-0.004-0.12,0.07-0.229,0.182-0.269
				c0.112-0.04,0.238-0.003,0.312,0.094c1.041,1.387,1.824,2.983,2.289,4.658c2.155-4.966,2.339-10.696,0.483-15.844
				c-0.049-0.139,0.018-0.292,0.154-0.348c0.138-0.056,0.293,0.006,0.354,0.14c1.056,2.303,2.139,4.666,2.78,7.161
				c-0.231-6.004-3.344-12.307-8.639-17.288c-0.098-0.092-0.115-0.24-0.042-0.351c0.074-0.111,0.217-0.154,0.339-0.1
				c1.115,0.487,2.174,1.135,3.126,1.908c-1.195-2.189-2.472-4.382-4.051-6.318c-2.136-2.618-4.624-4.444-7.197-5.28
				c-0.117-0.038-0.194-0.149-0.19-0.271c0.02-0.541,0.047-1.279,0.941-1.279c0.017,0,0.034,0,0.053,0.001
				c0.732,0.022,1.381,0.423,1.901,0.744l4.456,2.747c-2.521-2.946-5.885-5.132-9.615-6.225c-4.225-1.238-8.811-1.042-12.915,0.555
				c-0.111,0.042-0.236,0.01-0.31-0.079c-0.076-0.09-0.086-0.219-0.025-0.319l1.369-2.254c-2.485,1.366-4.755,3.18-6.957,4.941
				c-1.593,1.274-3.241,2.591-4.96,3.732c-1.02,0.676-2.116,1.252-3.177,1.808c-0.854,0.449-1.737,0.912-2.568,1.423
				c-1.519,0.935-2.661,1.927-3.448,3.005c1.226-0.948,2.707-1.566,4.251-1.749c0.118-0.021,0.239,0.054,0.286,0.168
				c0.046,0.114,0.012,0.246-0.086,0.321c-5.676,4.425-8.901,11.913-8.215,19.078c0.146,1.526,0.44,2.75,0.911,3.772
				c0.27-3.387,1.663-6.718,3.9-9.265c0.088-0.1,0.236-0.123,0.349-0.053c0.115,0.07,0.162,0.211,0.113,0.335
				c-1.696,4.291-1.487,9.505,0.573,14.303c1.64,3.82,4.394,7.406,8.194,10.674c-0.762-1.903-1.101-3.961-0.985-6.018
				c0.008-0.124,0.097-0.227,0.218-0.253C189.466,158.898,189.484,158.895,189.504,158.895z"/>
		</g>
		<g>
			<path style="fill:#E4E1DC;" d="M228.856,135.835c-2.704-1.754-5.408-3.508-8.111-5.262c2.601,3.918,4.796,8.106,6.536,12.475
				c-2.843-2.949-5.686-5.898-8.529-8.847c2.404,4.963,3.3,10.39,2.286,15.81c-1.828-1.442-3.657-2.885-5.485-4.327
				c1.617,1.814,1.701,4.804,0.188,6.705c-1.513,1.901-4.446,2.492-6.576,1.324c0.936,0.413,1.169,1.772,0.611,2.63
				c-0.558,0.858-1.661,1.23-2.684,1.184c-1.022-0.046-1.992-0.443-2.938-0.833c-2.528-1.044-5.056-2.088-7.583-3.132
				c-0.125,1.167-0.251,2.333-0.376,3.5c-2.571-2.94-4.365-6.552-5.155-10.376c-0.087,1.887-0.175,3.774-0.262,5.661
				c-4.159-8.254-3.761-18.632,1.017-26.543c1.239,1.653,2.477,3.305,3.716,4.958c-0.529-2.63-1.057-5.26-1.585-7.889
				c2.146,2.708,4.292,5.416,6.437,8.124c-0.403-2.639-1.652-5.06-2.749-7.494c-1.073-2.38-2.025-4.921-1.887-7.522
				c-2.233,1.741-4.404,3.589-6.747,5.144c-1.829,1.214-3.867,2.077-5.737,3.227c-1.87,1.15-3.626,2.67-4.435,4.711
				c1.343-1.621,3.324-2.7,5.414-2.948c-5.77,4.497-9.018,12.039-8.32,19.321c0.159,1.657,0.523,3.334,1.414,4.74
				c0.052-3.675,1.452-7.316,3.877-10.078c-1.826,4.619-1.384,9.948,0.575,14.512c1.96,4.564,5.333,8.414,9.191,11.543
				c-1.084-2.146-1.591-4.58-1.454-6.98c1.674,3.265,4.494,5.868,7.729,7.598c3.235,1.73,6.872,2.622,10.526,2.952
				c-2.095-0.93-4.038-2.198-5.733-3.74c4.958,1.922,10.441,1.785,15.756,1.621c-1.947-1.321-3.016-2.895-3.659-5.158
				c1.911,1.81,4.252,3.164,6.774,3.917c0.588-1.96,2.173-3.439,3.177-5.222c1.717-3.05,1.628-6.753,1.491-10.251
				c1.18,1.573,2.016,3.402,2.432,5.324c2.503-5.218,2.781-11.324,0.818-16.768c1.411,3.077,2.84,6.218,3.227,9.581
				C232.507,144.418,231.202,139.862,228.856,135.835z"/>
		</g>
	</g>
	<g>
		<g>
			<path style="fill:#F7FCF6;" d="M13.026,140.181c0,0-0.659-14.497,17.132-22.667c-4.876,3.954-4.876,3.954-4.613,4.612
				c0.264,0.659,31.893-17.264,75.119-6.721c2.109,0.791,0.923-1.054-1.845-2.109c10.148,0.527,15.814,3.822,15.814,3.822
				s0.923-1.582-1.845-2.768c10.411,3.69,25.828,17.06,33.134,15.963c2.74,3.288,1.279,5.845,1.279,5.845s6.576-4.384,6.028-10.594
				c4.019,4.019,2.192,10.046,2.192,10.046s3.836-7.489,0.365-14.613c3.471,2.74,5.48,3.471,5.48,3.471s-7.489-10.046-6.941-18.449
				c3.105,6.576,5.48,8.585,5.48,8.585s-5.115-23.381-19.728-29.957c-14.613-6.576-30.139-10.046-38.907-10.229
				c5.48-1.461,8.037-1.279,8.037-1.279s-15.161-0.731-22.833-1.279c8.585-2.375,11.325-3.653,11.325-3.653
				s-14.978,3.288-27.765,2.923s-21.554,5.297-31.053,3.836c2.375,2.375,3.836,2.923,3.836,2.923s-9.499,0-11.325,1.461
				c2.923,0.913,4.384,1.279,4.384,1.279s-15.344,3.105-18.449,4.749c0,0,3.471,1.461,6.211,1.096
				c-9.681,3.288-14.43,9.133-14.43,12.786c2.192-2.192,3.471-2.192,3.471-2.192s-10.229,16.805-8.585,27.217
				c2.009-4.567,3.288-6.028,3.288-6.028S2.147,132.147,13.026,140.181z"/>
			<path style="fill:#FFFFFF;" d="M13.026,140.456c-0.058,0-0.115-0.018-0.163-0.054c-8.671-6.402-7.285-16.569-6.32-20.557
				c-0.561,0.935-1.348,2.396-2.297,4.551c-0.048,0.112-0.164,0.181-0.287,0.162c-0.121-0.016-0.217-0.109-0.236-0.229
				c-1.489-9.433,6.485-23.753,8.282-26.83c-0.549,0.216-1.475,0.731-2.701,1.956c-0.078,0.078-0.195,0.101-0.299,0.06
				c-0.103-0.042-0.17-0.143-0.17-0.254c0-3.699,4.564-9.166,13.06-12.479c-2.318-0.171-4.556-1.101-4.672-1.15
				c-0.098-0.041-0.163-0.135-0.168-0.241c-0.004-0.106,0.053-0.206,0.146-0.255c2.645-1.399,13.766-3.786,17.394-4.542
				c-0.736-0.207-1.832-0.527-3.281-0.98c-0.098-0.031-0.17-0.112-0.189-0.211c-0.018-0.1,0.019-0.202,0.099-0.266
				c1.525-1.22,7.882-1.462,10.439-1.51c-0.681-0.433-1.697-1.191-2.973-2.466c-0.084-0.084-0.104-0.212-0.05-0.318
				c0.054-0.106,0.169-0.162,0.286-0.147c4.801,0.737,9.518-0.388,14.514-1.58c4.787-1.143,10.2-2.436,16.504-2.259
				c12.594,0.367,27.548-2.883,27.698-2.916c0.143-0.031,0.275,0.048,0.319,0.18c0.045,0.132-0.017,0.278-0.144,0.337
				c-0.105,0.049-2.524,1.162-9.835,3.239c7.567,0.502,19.949,1.107,21.148,1.165c0.056,0.002,0.089,0.004,0.099,0.005
				c0.15,0.011,0.264,0.141,0.255,0.291c-0.01,0.15-0.151,0.289-0.288,0.257c-0.005,0-0.023-0.001-0.053-0.002
				c-0.32-0.011-2.296-0.042-6.062,0.816c8.743,0.57,22.992,3.816,37.109,10.169c7.626,3.431,12.627,11.454,15.48,17.579
				c3.082,6.618,4.39,12.511,4.403,12.57c0.026,0.115-0.026,0.233-0.127,0.294c-0.101,0.059-0.23,0.051-0.319-0.026
				c-0.093-0.079-2.207-1.908-5.054-7.651c0.142,7.961,6.842,17.046,6.912,17.141c0.073,0.097,0.073,0.231,0,0.328
				c-0.072,0.097-0.202,0.136-0.313,0.094c-0.077-0.028-1.763-0.655-4.702-2.856c2.709,6.858-0.767,13.793-0.805,13.865
				c-0.064,0.127-0.216,0.181-0.348,0.13c-0.132-0.053-0.201-0.199-0.16-0.334c0.017-0.056,1.573-5.388-1.621-9.224
				c0.002,5.885-5.921,9.904-6.184,10.079c-0.106,0.07-0.246,0.059-0.339-0.027c-0.093-0.086-0.115-0.226-0.053-0.336
				c0.055-0.097,1.292-2.386-1.154-5.417c-4.416,0.524-11.364-3.734-18.716-8.254c-4.227-2.598-8.575-5.272-12.388-6.943
				c0.115,0.166,0.202,0.34,0.261,0.52c0.243,0.735-0.081,1.303-0.094,1.327c-0.076,0.131-0.245,0.175-0.375,0.099
				c-0.053-0.031-5.189-2.956-14.247-3.689c1.105,0.626,1.931,1.395,1.739,1.905c-0.205,0.545-1.119,0.204-1.419,0.091
				c-24.554-5.985-49.122-3.963-72.993,6.021c-1.694,0.709-1.92,0.792-2.122,0.709c-0.067-0.028-0.135-0.095-0.163-0.164
				c-0.289-0.721-0.332-0.828,2.778-3.369c-7.575,4.064-11.18,9.305-12.885,13.137c-2.018,4.538-1.885,8.137-1.883,8.173
				c0.004,0.106-0.052,0.205-0.146,0.255C13.115,140.445,13.07,140.456,13.026,140.456z M7.283,117.984
				c0.048,0,0.096,0.012,0.141,0.039c0.114,0.068,0.163,0.207,0.117,0.331c-0.013,0.035-1.268,3.49-1.191,7.867
				c0.1,5.647,2.254,10.156,6.403,13.408c0.038-1.203,0.305-4.192,1.917-7.828c1.898-4.282,6.106-10.279,15.374-14.536
				c0.128-0.059,0.275-0.013,0.348,0.105c0.074,0.118,0.047,0.271-0.06,0.358c-3.981,3.228-4.598,3.745-4.585,4.1
				c0.299-0.099,0.92-0.359,1.618-0.651c23.983-10.03,48.664-12.063,73.367-6.038c0.386,0.144,0.598,0.177,0.704,0.182
				c-0.184-0.339-1.124-1.163-2.712-1.768c-0.127-0.048-0.2-0.181-0.171-0.313c0.028-0.132,0.148-0.23,0.282-0.217
				c8.832,0.459,14.363,3.042,15.649,3.704c0.033-0.159,0.044-0.381-0.042-0.636c-0.192-0.562-0.8-1.076-1.761-1.487
				c-0.136-0.058-0.202-0.215-0.147-0.352c0.054-0.138,0.201-0.21,0.348-0.159c4.302,1.525,9.486,4.712,14.499,7.794
				c7.028,4.321,14.302,8.783,18.502,8.157c0.094-0.016,0.19,0.021,0.252,0.096c1.881,2.257,1.866,4.185,1.626,5.256
				c1.66-1.336,5.615-5.048,5.196-9.806c-0.01-0.115,0.053-0.224,0.158-0.273c0.101-0.048,0.229-0.027,0.31,0.055
				c2.423,2.423,2.774,5.578,2.654,7.758c0.842-2.743,1.669-7.477-0.539-12.01c-0.056-0.115-0.026-0.254,0.074-0.334
				c0.1-0.08,0.241-0.08,0.343-0.002c2.044,1.614,3.582,2.526,4.486,2.997c-1.792-2.617-6.853-10.696-6.391-17.778
				c0.007-0.125,0.1-0.228,0.222-0.252c0.123-0.024,0.247,0.039,0.299,0.152c2.06,4.36,3.804,6.704,4.721,7.767
				c-0.504-1.946-1.81-6.502-4.126-11.471c-2.813-6.037-7.734-13.939-15.202-17.3c-15.126-6.807-30.386-10.03-38.8-10.205
				c-0.137-0.003-0.251-0.106-0.267-0.242c-0.016-0.136,0.07-0.263,0.202-0.298c1.669-0.445,3.067-0.739,4.207-0.932
				c-5.027-0.255-13.753-0.714-18.951-1.085c-0.134-0.01-0.24-0.114-0.254-0.247c-0.013-0.133,0.072-0.256,0.201-0.292
				c3.766-1.042,6.411-1.875,8.188-2.48c-5.137,0.939-15.454,2.547-24.562,2.288c-6.226-0.181-11.375,1.054-16.362,2.244
				c-4.764,1.137-9.28,2.214-13.894,1.699c1.942,1.812,3.132,2.279,3.145,2.284c0.123,0.047,0.196,0.176,0.172,0.307
				c-0.024,0.13-0.137,0.225-0.269,0.225c-2.381,0-8.478,0.209-10.636,1.113c2.479,0.764,3.749,1.083,3.761,1.086
				c0.124,0.031,0.211,0.144,0.208,0.273c-0.003,0.128-0.094,0.237-0.22,0.263c-0.145,0.03-13.769,2.797-17.793,4.454
				c1.101,0.388,3.495,1.115,5.463,0.849c0.149-0.018,0.271,0.072,0.304,0.21c0.032,0.138-0.045,0.277-0.179,0.323
				c-8.694,2.953-13.627,8.128-14.189,11.834c1.934-1.752,3.09-1.774,3.142-1.774c0.1,0,0.191,0.054,0.239,0.14
				c0.048,0.086,0.047,0.193-0.004,0.277c-0.099,0.162-9.542,15.817-8.666,26.061c1.768-3.849,2.877-5.139,2.927-5.196
				C7.13,118.016,7.206,117.984,7.283,117.984z"/>
		</g>
		<g>
			<path style="fill:none;" d="M112.455,75.804c-1.812-0.849-3.623-1.697-5.435-2.546c-1.323,0.149-3.254,0.47-5.849,1.162
				C104.22,74.483,108.096,74.953,112.455,75.804z"/>
			<path style="fill:#E4E1DC;" d="M161.268,124.469c0,0-7.489-10.046-6.941-18.449c3.105,6.576,5.48,8.585,5.48,8.585
				s-5.115-23.381-19.728-29.957c-9.533-4.29-19.443-7.249-27.623-8.845c5.523,2.587,11.046,5.174,16.569,7.761
				c-0.689,0.333-1.377,0.666-2.066,1c5.093,2.269,9.325,6.412,11.701,11.456c-2.264-0.717-4.527-1.435-6.79-2.152
				c3.083,5.472,6.166,10.945,9.249,16.417c-1.551-1.084-3.102-2.168-4.652-3.252c0.914,4.418,1.827,8.835,2.741,13.253
				c-3.688-2.957-7.376-5.914-11.065-8.871c0.462,2.801,0.924,5.601,1.386,8.402c-8.284-10.173-22.101-15.533-35.078-13.609
				c-2.698-1.336-5.846-0.344-6.059,2.66c-2.701-2.663-6.348-4.348-10.127-4.677c1.052,1.633,2.103,3.267,3.155,4.9
				c-8.827-2.128-18.248-1.73-26.863,1.137c0.141-1.038,0.281-2.077,0.422-3.115c-4.746,1.592-9.492,3.184-14.238,4.776
				c1.041-1.429,2.082-2.858,3.123-4.286c-5.92,0.333-11.627,3.422-15.145,8.194c0.269-1.635,0.538-3.27,0.807-4.906
				c-3.507,2.863-7.015,5.726-10.522,8.589c1.221-2.767,2.443-5.534,3.664-8.3c-5.357,3.769-9.716,8.943-12.521,14.862
				c-0.409-7.127,2.177-14.378,7.003-19.638c-2.591,2.819-5.182,5.637-7.772,8.456c3.163-6.583,6.326-13.167,9.489-19.751
				c-2.774,1.876-5.547,3.752-8.321,5.628c-2.892,5.531-7.717,16.152-6.549,23.551c2.009-4.567,3.288-6.028,3.288-6.028
				s-5.137,13.889,5.743,21.923c0,0-0.659-14.497,17.132-22.668c-4.876,3.954-4.876,3.954-4.613,4.613
				c0.264,0.659,31.893-17.264,75.119-6.721c2.109,0.791,0.923-1.054-1.845-2.109c10.148,0.527,15.814,3.822,15.814,3.822
				s0.923-1.582-1.845-2.768c10.411,3.69,25.828,17.059,33.134,15.963c2.74,3.288,1.279,5.845,1.279,5.845s6.576-4.384,6.028-10.594
				c4.019,4.019,2.192,10.046,2.192,10.046s3.836-7.489,0.365-14.613C159.258,123.738,161.268,124.469,161.268,124.469z"/>
		</g>
	</g>
</g>
</svg>
